<?xml version="1.0" encoding="UTF-8" ?>
<!DOCTYPE svg PUBLIC "-//W3C//DTD SVG 1.1//EN" "http://www.w3.org/Graphics/SVG/1.1/DTD/svg11.dtd">
<svg width="750pt" height="750pt" viewBox="0 0 750 750" version="1.1" xmlns="http://www.w3.org/2000/svg">
<g id="#ef423bff">
<path fill="#ef423b" opacity="1.00" d=" M 421.32 137.32 C 424.31 135.84 427.79 136.31 431.02 136.21 C 444.63 136.74 458.25 135.78 471.85 136.55 C 477.23 137.32 481.41 141.57 483.85 146.21 C 515.48 213.28 546.97 280.42 578.71 347.43 C 573.37 351.93 566.54 353.84 560.18 356.40 L 559.49 356.66 C 555.47 347.83 551.25 339.09 547.12 330.31 C 532.81 341.82 519.46 354.46 506.02 366.96 C 493.10 379.07 479.77 390.73 466.75 402.74 C 435.41 431.39 404.43 460.44 372.51 488.45 C 356.71 489.39 340.88 488.87 325.06 489.00 C 294.17 489.06 263.27 488.88 232.38 489.09 C 226.69 505.45 217.12 520.09 206.94 533.98 C 184.56 563.50 157.97 589.56 129.88 613.61 C 114.51 601.11 100.18 587.40 86.40 573.18 C 100.03 559.57 114.38 546.67 127.56 532.60 C 133.98 525.02 141.46 518.46 148.30 511.28 C 149.70 509.88 150.40 507.99 151.18 506.22 C 161.48 500.22 169.33 490.11 172.76 478.70 C 175.75 467.84 174.57 455.78 168.99 445.94 C 161.32 431.61 145.50 421.62 129.05 422.46 C 112.97 422.10 98.28 432.30 90.26 445.78 C 84.96 448.39 81.60 453.45 77.05 457.03 C 73.32 459.99 70.41 463.76 67.23 467.26 C 55.67 478.73 44.28 490.37 32.17 501.27 C 27.21 490.82 23.43 479.63 22.74 468.02 C 22.78 443.15 31.19 418.24 47.08 399.01 C 64.56 377.67 90.57 363.45 118.05 360.63 C 125.35 359.58 132.78 359.25 140.09 360.36 C 159.75 362.31 178.72 369.87 194.57 381.62 C 200.30 385.73 205.30 390.71 210.05 395.89 C 219.94 407.58 227.80 421.18 232.12 435.93 C 235.25 446.32 236.53 457.18 236.85 468.00 C 236.90 469.23 236.93 470.46 236.93 471.70 C 236.34 476.94 234.57 481.93 233.30 487.02 C 240.88 487.39 248.49 487.33 256.08 486.98 C 256.19 481.72 256.01 476.46 255.88 471.21 C 280.93 470.27 306.00 470.63 331.06 470.84 C 338.08 470.69 345.11 471.20 352.11 470.44 C 351.87 469.94 351.40 468.96 351.16 468.46 C 329.65 421.43 306.73 375.05 284.73 328.23 C 263.70 346.74 243.19 365.84 222.50 384.71 C 219.20 378.33 213.86 373.36 209.75 367.52 C 231.47 347.83 253.14 328.08 274.76 308.29 C 265.68 286.94 254.72 266.45 245.43 245.19 C 232.59 244.94 219.73 245.40 206.90 244.89 C 202.02 244.35 200.02 239.15 198.24 235.29 C 199.93 231.70 200.71 225.58 205.79 225.67 L 205.90 225.69 C 211.47 227.13 217.26 226.99 222.98 227.06 C 243.31 227.12 263.65 226.85 283.98 227.20 C 291.24 227.37 298.55 226.87 305.56 224.83 C 312.58 227.70 313.88 239.28 307.46 243.52 C 305.26 244.98 302.49 244.86 299.97 245.04 C 289.58 245.30 279.19 244.92 268.81 245.26 C 277.05 264.15 286.76 282.38 295.11 301.24 C 296.72 301.69 298.34 302.15 299.95 302.61 C 299.23 302.85 297.79 303.32 297.07 303.56 C 305.95 305.17 315.01 304.69 323.98 304.65 C 382.00 304.62 440.02 304.69 498.04 304.62 C 509.34 304.56 520.69 305.15 531.94 303.67 C 531.04 303.24 530.15 302.81 529.26 302.38 C 530.54 301.98 531.84 301.59 533.15 301.20 C 511.36 252.87 487.89 205.34 465.85 157.13 C 453.35 156.51 440.81 158.00 428.34 156.72 C 439.97 155.11 451.85 157.28 463.44 155.14 C 457.78 153.42 451.81 154.04 445.99 153.90 C 437.38 153.97 428.76 153.82 420.17 154.43 L 419.27 154.32 C 414.71 150.13 415.10 140.20 421.32 137.32 M 305.64 322.04 C 309.98 332.56 314.93 342.82 319.89 353.06 C 337.44 388.90 353.69 425.37 371.76 460.96 C 422.15 414.59 473.11 368.82 523.21 322.13 C 450.69 321.93 378.16 322.06 305.64 322.04 Z" />
<path fill="#ef423b" opacity="1.00" d=" M 587.04 365.23 C 596.70 361.96 606.87 360.60 616.99 359.75 C 647.52 358.96 677.97 371.84 698.96 393.95 C 708.53 404.99 716.43 417.66 721.21 431.52 C 725.77 444.50 727.28 458.33 727.50 472.02 C 723.57 494.15 712.06 514.04 698.92 531.96 C 676.27 562.33 649.14 589.08 620.34 613.59 C 604.91 601.04 590.56 587.23 576.72 572.96 C 585.75 565.28 593.76 556.49 602.31 548.29 C 613.07 537.72 623.43 526.75 634.21 516.20 C 637.55 512.94 640.36 509.21 643.20 505.51 C 655.49 497.13 664.75 483.22 664.79 468.01 C 665.79 447.41 650.09 427.70 630.05 423.38 C 619.58 421.35 608.23 422.38 598.92 427.85 C 591.24 432.09 585.14 438.72 580.51 446.09 C 568.19 454.37 559.17 466.39 548.32 476.34 C 539.80 484.72 531.46 493.28 522.77 501.48 C 518.79 493.07 515.50 484.25 514.03 475.03 C 512.76 468.07 513.36 460.95 514.19 453.98 C 516.29 436.92 522.43 420.34 532.22 406.19 C 541.32 392.76 553.72 381.72 567.76 373.67 C 573.93 370.31 580.34 367.37 587.04 365.23 Z" />
</g>
<g id="#d33938ff">
<path fill="#d33938" opacity="1.00" d=" M 420.17 154.43 C 428.76 153.82 437.38 153.97 445.99 153.90 C 451.81 154.04 457.78 153.42 463.44 155.14 C 451.85 157.28 439.97 155.11 428.34 156.72 C 425.48 156.71 422.37 156.48 420.03 154.66 L 420.17 154.43 Z" />
</g>
<g id="#e3312aff">
<path fill="#e3312a" opacity="1.00" d=" M 205.79 225.67 C 208.38 223.68 211.97 224.47 215.02 224.21 C 245.41 224.73 275.81 223.66 306.19 224.68 L 305.56 224.83 C 298.55 226.87 291.24 227.37 283.98 227.20 C 263.65 226.85 243.31 227.12 222.98 227.06 C 217.26 226.99 211.47 227.13 205.90 225.69 L 205.79 225.67 Z" />
</g>
<g id="#d33837ff">
<path fill="#d33837" opacity="1.00" d=" M 295.11 301.24 C 356.06 301.03 417.01 301.60 477.96 301.27 C 496.36 301.07 514.75 301.20 533.15 301.20 C 531.84 301.59 530.54 301.98 529.26 302.38 C 530.15 302.81 531.04 303.24 531.94 303.67 C 520.69 305.15 509.34 304.56 498.04 304.62 C 440.02 304.69 382.00 304.62 323.98 304.65 C 315.01 304.69 305.95 305.17 297.07 303.56 C 297.79 303.32 299.23 302.85 299.95 302.61 C 298.34 302.15 296.72 301.69 295.11 301.24 Z" />
</g>
<g id="#dd382bff">
<path fill="#dd382b" opacity="1.00" d=" M 578.71 347.43 C 581.45 353.38 584.29 359.28 587.04 365.23 C 580.34 367.37 573.93 370.31 567.76 373.67 C 564.97 368.02 562.14 362.38 559.56 356.63 L 560.18 356.40 C 566.54 353.84 573.37 351.93 578.71 347.43 Z" />
<path fill="#dd382b" opacity="1.00" d=" M 194.57 381.62 C 199.47 376.75 204.59 372.11 209.75 367.52 C 213.86 373.36 219.20 378.33 222.50 384.71 C 218.36 388.45 214.21 392.17 210.05 395.89 C 205.30 390.71 200.30 385.73 194.57 381.62 Z" />
</g>
<g id="#d9392eff">
<path fill="#d9392e" opacity="1.00" d=" M 77.05 457.03 C 81.60 453.45 84.96 448.39 90.26 445.78 C 84.12 458.27 83.43 473.77 89.75 486.34 C 96.47 500.11 110.69 510.01 125.98 511.27 C 134.72 512.20 143.28 509.73 151.18 506.22 C 150.40 507.99 149.70 509.88 148.30 511.28 C 141.46 518.46 133.98 525.02 127.56 532.60 C 114.38 546.67 100.03 559.57 86.40 573.18 C 65.70 551.39 45.78 528.27 32.17 501.27 C 44.28 490.37 55.67 478.73 67.23 467.26 C 70.41 463.76 73.32 459.99 77.05 457.03 Z" />
<path fill="#d9392e" opacity="1.00" d=" M 548.32 476.34 C 559.17 466.39 568.19 454.37 580.51 446.09 C 575.04 458.03 573.98 472.46 579.44 484.60 C 585.99 499.70 601.49 510.67 618.00 511.34 C 626.82 512.09 635.29 509.08 643.20 505.51 C 640.36 509.21 637.55 512.94 634.21 516.20 C 623.43 526.75 613.07 537.72 602.31 548.29 C 593.76 556.49 585.75 565.28 576.72 572.96 C 556.10 551.33 536.35 528.30 522.77 501.48 C 531.46 493.28 539.80 484.72 548.32 476.34 Z" />
</g>
<g id="#ca3b39ff">
<path fill="#ca3b39" opacity="1.00" d=" M 236.85 468.00 C 274.95 468.14 313.07 467.63 351.16 468.46 C 351.40 468.96 351.87 469.94 352.11 470.44 C 345.11 471.20 338.08 470.69 331.06 470.84 C 306.00 470.63 280.93 470.27 255.88 471.21 C 249.57 471.51 243.24 471.29 236.93 471.70 C 236.93 470.46 236.90 469.23 236.85 468.00 Z" />
</g>
<g id="#df3529ff">
<path fill="#df3529" opacity="1.00" d=" M 236.93 471.70 C 243.24 471.29 249.57 471.51 255.88 471.21 C 256.01 476.46 256.19 481.72 256.08 486.98 C 248.49 487.33 240.88 487.39 233.30 487.02 C 234.57 481.93 236.34 476.94 236.93 471.70 Z" />
</g>
</svg>
